<svg xmlns="http://www.w3.org/2000/svg" viewBox="0 0 829 965" width="829" role="img" aria-label="עץ החלטה לבחירת גישת עיצוב בריאקט לפי גודל הצוות ודרישות העיצוב">
<style>
svg{--ink:#0a1628;--card:#ffffff;--chip:#eef1f6;--border:#c3cddc;--accent:#4361ee;--accent-tint:#eef1fe;--pink:#e0175d;--edge:#64748b;--muted:#718096;}
@media (prefers-color-scheme: dark){svg{--ink:#edf3fc;--card:#0e1f38;--chip:#152a49;--border:#385582;--accent:#7b90f5;--accent-tint:#1a2c55;--pink:#ff5c93;--edge:#8296b3;--muted:#8296b3;}}
.n-box{fill:var(--card);stroke:var(--border);stroke-width:1.5;}
.n-dia{fill:var(--accent-tint);stroke:var(--accent);stroke-width:1.5;}
.n-hl{fill:var(--card);stroke:var(--pink);stroke-width:2;}
.n-cell{fill:var(--card);stroke:var(--border);stroke-width:1.2;}
.n-code-bg{fill:var(--chip);stroke:var(--border);stroke-width:1.2;}
.t{font-family:'Heebo','Segoe UI',system-ui,sans-serif;font-size:15px;font-weight:500;fill:var(--ink);direction:rtl;}
.t-b{font-family:'Heebo','Segoe UI',system-ui,sans-serif;font-size:16px;font-weight:700;fill:var(--ink);direction:rtl;}
.code{font-family:ui-monospace,'SF Mono',Menlo,monospace;font-size:13px;fill:var(--ink);direction:ltr;}
.lbl{font-family:'Heebo','Segoe UI',system-ui,sans-serif;font-size:13px;font-weight:600;fill:var(--accent);direction:rtl;}
.small{font-family:'Heebo','Segoe UI',system-ui,sans-serif;font-size:12px;fill:var(--muted);direction:rtl;}
.idx{font-family:ui-monospace,'SF Mono',Menlo,monospace;font-size:12px;fill:var(--muted);}
.edge{stroke:var(--edge);stroke-width:1.6;fill:none;}
.arrhead{fill:var(--edge);}
</style>
<defs><marker id="arr" viewBox="0 0 10 10" refX="8" refY="5" markerWidth="7" markerHeight="7" orient="auto-start-reverse"><path d="M0,0 L10,5 L0,10 z" class="arrhead"/></marker></defs>
<polyline id="edge-0" class="edge" points="258.8,62.0 258.8,102.0" marker-end="url(#arr)"/>
<polyline id="edge-1" class="edge" points="475.0,210.1 541.0,210.1" marker-end="url(#arr)"/>
<text class="lbl" x="508.0" y="198.1" text-anchor="middle">כן</text>
<polyline id="edge-2" class="edge" points="258.8,318.2 258.8,358.2" marker-end="url(#arr)"/>
<text class="lbl" x="272.8" y="342.2" text-anchor="end">לא</text>
<polyline id="edge-3" class="edge" points="480.6,469.1 546.6,469.1" marker-end="url(#arr)"/>
<text class="lbl" x="513.6" y="457.1" text-anchor="middle">כן</text>
<polyline id="edge-4" class="edge" points="258.8,580.0 258.8,620.0" marker-end="url(#arr)"/>
<text class="lbl" x="272.8" y="604.0" text-anchor="end">לא</text>
<polyline id="edge-5" class="edge" points="501.7,741.4 567.7,741.4" marker-end="url(#arr)"/>
<text class="lbl" x="534.7" y="729.4" text-anchor="middle">כן</text>
<polyline id="edge-6" class="edge" points="258.8,862.8 258.8,902.8" marker-end="url(#arr)"/>
<text class="lbl" x="272.8" y="886.8" text-anchor="end">לא</text>
<g id="el-start">
<rect class="n-box shp" x="163.6" y="16.0" width="190.5" height="46.0" rx="8"/>
<text class="t" x="258.8" y="44.0" text-anchor="middle">פרויקט ריאקט חדש</text>
</g>
<g id="el-d1">
<polygon class="n-dia shp" points="258.8,102.0 475.0,210.1 258.8,318.2 42.6,210.1"/>
<text class="t" x="258.8" y="215.1" text-anchor="middle">צריך עיצוב מקצועי מהר?</text>
</g>
<g id="el-lib">
<rect class="n-box shp" x="541.0" y="187.1" width="272.1" height="46.0" rx="8"/>
<text class="t" x="677.1" y="215.1" text-anchor="middle">ספרית קומפוננטות - Mantine</text>
</g>
<g id="el-d2">
<polygon class="n-dia shp" points="258.8,358.2 480.6,469.1 258.8,580.0 37.1,469.1"/>
<text class="t" x="258.8" y="474.1" text-anchor="middle">יש מעצב עם שפה ייחודית?</text>
</g>
<g id="el-tw">
<rect class="n-box shp" x="546.6" y="446.1" width="186.8" height="46.0" rx="8"/>
<text class="t" x="640.0" y="474.1" text-anchor="middle">Tailwind עם Radix</text>
</g>
<g id="el-d3">
<polygon class="n-dia shp" points="258.8,620.0 501.7,741.4 258.8,862.8 16.0,741.4"/>
<text class="t" x="258.8" y="746.4" text-anchor="middle">הרבה קומפוננטות מורכבות?</text>
</g>
<g id="el-mod">
<rect class="n-box shp" x="567.7" y="718.4" width="141.1" height="46.0" rx="8"/>
<text class="t" x="638.2" y="746.4" text-anchor="middle" style="direction:ltr">CSS Modules</text>
</g>
<g id="el-plain">
<rect class="n-box shp" x="113.7" y="902.8" width="290.3" height="46.0" rx="8"/>
<text class="t" x="258.8" y="930.8" text-anchor="middle">CSS רגיל או סגנונות אינליין</text>
</g>
</svg>
